{
 "cells": [
  {
   "cell_type": "markdown",
   "metadata": {},
   "source": [
    "### Космический кризис\n",
    "На далёкой планете Видеосфера-IX правительство ввело новый закон: безопасность на улицах теперь обеспечивают интеллектуальные патрули-роботы, способные видеть всё происходящее через камеры городского видеонаблюдения. Каждый робот оснащён отличным детектором объектов — он мгновенно находит граждан, гравибайки и потерянные зонтики на каждом кадре, но… абсолютно не понимает, что одно и то же существо на 10 разных кадрах — всё ещё тот же гражданин, а не 10 разных.\n",
    "\n",
    "Государственные инженеры спешно посчитали, что из-за этого повторного подсчёта у них уже начинается кризис — они думают, что на улицах скопилось гораздо больше людей, чем есть на самом деле, и требуют срочно наладить учёт перемещающихся объектов во времени.\n",
    "\n",
    "Однако финансирования на доработку системы не выделили — всё ушло на запуск межгалактической лиги по квантовым шахматам среди студентов университета Планеты Видеосфера.\n",
    "\n",
    "Задача для вас: имея выходы детектора людей (bounding boxes), разработать трекинг-модуль: такой алгоритм, который сможет сопоставлять одного и того же объекта на разных кадрах — «сшивать» дорожку его перемещения по видео.\n",
    "\n",
    "### Комментарии к задаче\n",
    "- не использовать готовые e2e трекинг модели\n",
    "- необходимо предсказать только idx-ы людей с разных кадров. Один человек - один индекс на всей видеодорожке (номер индекса не имеет значения)\n",
    "- для оценки решения используется метрика МОТА\n",
    "    - $$MOTA =1 - \\frac{\\sum_t{(FN_t+FP_t+IDSW_t)}}{\\sum{GT_t}}$$\n",
    "    - IDSW_t (index switch) - число некоретно предсказанных индексов людей\n",
    "- данные - https://drive.google.com/file/d/116ObQT_Ma9Wi8aOIUT5QvrQHtmAKXdnt/view?usp=sharing"
   ]
  },
  {
   "cell_type": "code",
   "execution_count": 1,
   "metadata": {},
   "outputs": [],
   "source": [
    "import pandas as pd\n",
    "import os\n",
    "os.environ[\"CUDA_VISIBLE_DEVICES\"] = \"1\"  # Only GPU 1 will be visible to PyTorch\n",
    "\n",
    "import torch\n",
    "import cv2\n",
    "import os\n",
    "from glob import glob\n",
    "from IPython.display import Video\n",
    "import numpy as np\n",
    "\n",
    "DATA_PATH = \"/home/kashindanil/temp_project\"\n",
    "DIR_TO_VIZ = os.path.join(DATA_PATH, \"mp4data/\")\n",
    "os.makedirs(DIR_TO_VIZ, exist_ok=True)\n"
   ]
  },
  {
   "cell_type": "markdown",
   "metadata": {},
   "source": [
    "### Vizualization"
   ]
  },
  {
   "cell_type": "code",
   "execution_count": 11,
   "metadata": {},
   "outputs": [],
   "source": [
    "train_df = pd.read_csv(os.path.join(DATA_PATH, 'data/MOT17/TEST/labels.csv'))\n",
    "train_df['vid_path'] = train_df['vid_path'].apply(lambda x: os.path.join(DATA_PATH, x))\n",
    "train_df['full_path'] = train_df.apply(lambda row: os.path.join(row['vid_path'], row['image_name']), axis=1)"
   ]
  },
  {
   "cell_type": "code",
   "execution_count": 12,
   "metadata": {},
   "outputs": [],
   "source": [
    "def get_color(id):\n",
    "    \"\"\"Generate a color from object_id (as a tuple in BGR).\"\"\"\n",
    "    np.random.seed(id)\n",
    "    return tuple(int(x) for x in np.random.randint(0, 255, 3))\n",
    "\n",
    "def images_to_mp4(image_pathes = None, list_bboxes = None, idxes = None, output_video_path = \"output.mp4\", fps=24, pattern=\"*.jpg\"):\n",
    "    frame = cv2.imread(image_pathes[0])\n",
    "    height, width, layers = frame.shape\n",
    "    fourcc = cv2.VideoWriter_fourcc(*'mp4v')\n",
    "    video = cv2.VideoWriter(output_video_path, fourcc, fps, (width, height))\n",
    "    for idx, image_file in enumerate(image_pathes):\n",
    "        frame = cv2.imread(image_file)\n",
    "        if list_bboxes:\n",
    "            bboxes = list_bboxes[idx]\n",
    "            for box_idx, box in enumerate(bboxes):\n",
    "                color = get_color(idxes[idx][box_idx]) if idxes else (0, 255, 0)\n",
    "                cv2.rectangle(frame, (box[0], box[1]), (box[0]+box[2], box[1]+box[3]), color, 2)\n",
    "                if idxes:\n",
    "                    cv2.putText(frame, str(idxes[idx][box_idx]), (box[0], box[1]-5),  cv2.FONT_HERSHEY_SIMPLEX, 1, color, 2)\n",
    "        video.write(frame)\n",
    "    \n",
    "    video.release()\n",
    "    print(f\"Video saved as {output_video_path}\")\n",
    "\n",
    "\n",
    "def decode_video(path_to_orig_video, save_path):\n",
    "    os.system(f\"ffmpeg -y -i {path_to_orig_video} {save_path}\")"
   ]
  },
  {
   "cell_type": "code",
   "execution_count": 13,
   "metadata": {},
   "outputs": [],
   "source": [
    "vid_path = train_df['vid_path'].unique()[0]"
   ]
  },
  {
   "cell_type": "code",
   "execution_count": 14,
   "metadata": {},
   "outputs": [
    {
     "name": "stdout",
     "output_type": "stream",
     "text": [
      "Video saved as /home/kashindanil/temp_project/mp4data/test_video1.mp4\n"
     ]
    },
    {
     "name": "stderr",
     "output_type": "stream",
     "text": [
      "ffmpeg version 6.1.1-3ubuntu5 Copyright (c) 2000-2023 the FFmpeg developers\n",
      "  built with gcc 13 (Ubuntu 13.2.0-23ubuntu3)\n",
      "  configuration: --prefix=/usr --extra-version=3ubuntu5 --toolchain=hardened --libdir=/usr/lib/x86_64-linux-gnu --incdir=/usr/include/x86_64-linux-gnu --arch=amd64 --enable-gpl --disable-stripping --disable-omx --enable-gnutls --enable-libaom --enable-libass --enable-libbs2b --enable-libcaca --enable-libcdio --enable-libcodec2 --enable-libdav1d --enable-libflite --enable-libfontconfig --enable-libfreetype --enable-libfribidi --enable-libglslang --enable-libgme --enable-libgsm --enable-libharfbuzz --enable-libmp3lame --enable-libmysofa --enable-libopenjpeg --enable-libopenmpt --enable-libopus --enable-librubberband --enable-libshine --enable-libsnappy --enable-libsoxr --enable-libspeex --enable-libtheora --enable-libtwolame --enable-libvidstab --enable-libvorbis --enable-libvpx --enable-libwebp --enable-libx265 --enable-libxml2 --enable-libxvid --enable-libzimg --enable-openal --enable-opencl --enable-opengl --disable-sndio --enable-libvpl --disable-libmfx --enable-libdc1394 --enable-libdrm --enable-libiec61883 --enable-chromaprint --enable-frei0r --enable-ladspa --enable-libbluray --enable-libjack --enable-libpulse --enable-librabbitmq --enable-librist --enable-libsrt --enable-libssh --enable-libsvtav1 --enable-libx264 --enable-libzmq --enable-libzvbi --enable-lv2 --enable-sdl2 --enable-libplacebo --enable-librav1e --enable-pocketsphinx --enable-librsvg --enable-libjxl --enable-shared\n",
      "  libavutil      58. 29.100 / 58. 29.100\n",
      "  libavcodec     60. 31.102 / 60. 31.102\n",
      "  libavformat    60. 16.100 / 60. 16.100\n",
      "  libavdevice    60.  3.100 / 60.  3.100\n",
      "  libavfilter     9. 12.100 /  9. 12.100\n",
      "  libswscale      7.  5.100 /  7.  5.100\n",
      "  libswresample   4. 12.100 /  4. 12.100\n",
      "  libpostproc    57.  3.100 / 57.  3.100\n",
      "Input #0, mov,mp4,m4a,3gp,3g2,mj2, from '/home/kashindanil/temp_project/mp4data/test_video1.mp4':\n",
      "  Metadata:\n",
      "    major_brand     : isom\n",
      "    minor_version   : 512\n",
      "    compatible_brands: isomiso2mp41\n",
      "    encoder         : Lavf59.27.100\n",
      "  Duration: 00:00:25.00, start: 0.000000, bitrate: 14193 kb/s\n",
      "  Stream #0:0[0x1](und): Video: mpeg4 (Simple Profile) (mp4v / 0x7634706D), yuv420p, 1920x1080 [SAR 1:1 DAR 16:9], 14192 kb/s, 24 fps, 24 tbr, 12288 tbn (default)\n",
      "    Metadata:\n",
      "      handler_name    : VideoHandler\n",
      "      vendor_id       : [0][0][0][0]\n",
      "Stream mapping:\n",
      "  Stream #0:0 -> #0:0 (mpeg4 (native) -> h264 (libx264))\n",
      "Press [q] to stop, [?] for help\n",
      "[libx264 @ 0x564ba5eb38c0] using SAR=1/1\n",
      "[libx264 @ 0x564ba5eb38c0] using cpu capabilities: MMX2 SSE2Fast SSSE3 SSE4.2 AVX FMA3 BMI2 AVX2 AVX512\n",
      "[libx264 @ 0x564ba5eb38c0] profile High, level 4.0, 4:2:0, 8-bit\n",
      "[libx264 @ 0x564ba5eb38c0] 264 - core 164 r3108 31e19f9 - H.264/MPEG-4 AVC codec - Copyleft 2003-2023 - http://www.videolan.org/x264.html - options: cabac=1 ref=3 deblock=1:0:0 analyse=0x3:0x113 me=hex subme=7 psy=1 psy_rd=1.00:0.00 mixed_ref=1 me_range=16 chroma_me=1 trellis=1 8x8dct=1 cqm=0 deadzone=21,11 fast_pskip=1 chroma_qp_offset=-2 threads=34 lookahead_threads=5 sliced_threads=0 nr=0 decimate=1 interlaced=0 bluray_compat=0 constrained_intra=0 bframes=3 b_pyramid=2 b_adapt=1 b_bias=0 direct=1 weightb=1 open_gop=0 weightp=2 keyint=250 keyint_min=24 scenecut=40 intra_refresh=0 rc_lookahead=40 rc=crf mbtree=1 crf=23.0 qcomp=0.60 qpmin=0 qpmax=69 qpstep=4 ip_ratio=1.40 aq=1:1.00\n",
      "Output #0, mp4, to '/home/kashindanil/temp_project/mp4data/decoded_test_video1.mp4':\n",
      "  Metadata:\n",
      "    major_brand     : isom\n",
      "    minor_version   : 512\n",
      "    compatible_brands: isomiso2mp41\n",
      "    encoder         : Lavf60.16.100\n",
      "  Stream #0:0(und): Video: h264 (avc1 / 0x31637661), yuv420p(progressive), 1920x1080 [SAR 1:1 DAR 16:9], q=2-31, 24 fps, 12288 tbn (default)\n",
      "    Metadata:\n",
      "      handler_name    : VideoHandler\n",
      "      vendor_id       : [0][0][0][0]\n",
      "      encoder         : Lavc60.31.102 libx264\n",
      "    Side data:\n",
      "      cpb: bitrate max/min/avg: 0/0/0 buffer size: 0 vbv_delay: N/A\n",
      "[out#0/mp4 @ 0x564ba5eadec0] video:21219kB audio:0kB subtitle:0kB other streams:0kB global headers:0kB muxing overhead: 0.033477%\n",
      "frame=  600 fps=166 q=-1.0 Lsize=   21226kB time=00:00:24.87 bitrate=6990.3kbits/s speed=6.86x    \n",
      "[libx264 @ 0x564ba5eb38c0] frame I:3     Avg QP:20.43  size:150292\n",
      "[libx264 @ 0x564ba5eb38c0] frame P:310   Avg QP:22.07  size: 54924\n",
      "[libx264 @ 0x564ba5eb38c0] frame B:287   Avg QP:25.83  size: 14810\n",
      "[libx264 @ 0x564ba5eb38c0] consecutive B-frames: 30.3% 13.0% 14.0% 42.7%\n",
      "[libx264 @ 0x564ba5eb38c0] mb I  I16..4: 12.0% 83.9%  4.1%\n",
      "[libx264 @ 0x564ba5eb38c0] mb P  I16..4:  2.8% 15.0%  0.3%  P16..4: 29.8% 13.8% 11.9%  0.0%  0.0%    skip:26.4%\n",
      "[libx264 @ 0x564ba5eb38c0] mb B  I16..4:  1.0%  4.7%  0.0%  B16..8: 38.3%  5.5%  1.1%  direct: 2.0%  skip:47.4%  L0:51.1% L1:38.9% BI:10.0%\n",
      "[libx264 @ 0x564ba5eb38c0] 8x8 transform intra:82.6% inter:88.2%\n",
      "[libx264 @ 0x564ba5eb38c0] coded y,uvDC,uvAC intra: 58.0% 63.5% 3.3% inter: 21.9% 15.2% 0.3%\n",
      "[libx264 @ 0x564ba5eb38c0] i16 v,h,dc,p: 27% 31% 39%  3%\n",
      "[libx264 @ 0x564ba5eb38c0] i8 v,h,dc,ddl,ddr,vr,hd,vl,hu: 17% 28% 45%  2%  1%  1%  1%  1%  3%\n",
      "[libx264 @ 0x564ba5eb38c0] i4 v,h,dc,ddl,ddr,vr,hd,vl,hu: 34% 38% 13%  2%  3%  3%  3%  2%  3%\n",
      "[libx264 @ 0x564ba5eb38c0] i8c dc,h,v,p: 42% 29% 26%  2%\n",
      "[libx264 @ 0x564ba5eb38c0] Weighted P-Frames: Y:0.0% UV:0.0%\n",
      "[libx264 @ 0x564ba5eb38c0] ref P L0: 64.0% 12.8% 15.5%  7.7%\n",
      "[libx264 @ 0x564ba5eb38c0] ref B L0: 77.7% 18.4%  3.9%\n",
      "[libx264 @ 0x564ba5eb38c0] ref B L1: 94.1%  5.9%\n",
      "[libx264 @ 0x564ba5eb38c0] kb/s:6952.80\n"
     ]
    }
   ],
   "source": [
    "images_to_mp4(image_pathes = train_df[train_df['vid_path'] == vid_path]['full_path'].drop_duplicates().tolist(),\n",
    "               output_video_path = os.path.join(DIR_TO_VIZ, 'test_video1.mp4'))\n",
    "decode_video(os.path.join(DIR_TO_VIZ, 'test_video1.mp4'), os.path.join(DIR_TO_VIZ, 'decoded_test_video1.mp4'))"
   ]
  },
  {
   "cell_type": "code",
   "execution_count": 16,
   "metadata": {},
   "outputs": [
    {
     "data": {
      "text/html": [
       "<video src=\"/home/kashindanil/temp_project/mp4data/decoded_test_video1.mp4\" controls  >\n",
       "      Your browser does not support the <code>video</code> element.\n",
       "    </video>"
      ],
      "text/plain": [
       "<IPython.core.display.Video object>"
      ]
     },
     "execution_count": 16,
     "metadata": {},
     "output_type": "execute_result"
    }
   ],
   "source": [
    "Video(os.path.join(DIR_TO_VIZ, 'decoded_test_video1.mp4')) "
   ]
  },
  {
   "cell_type": "markdown",
   "metadata": {},
   "source": [
    "### Расчет метрик"
   ]
  },
  {
   "cell_type": "code",
   "execution_count": 3,
   "metadata": {},
   "outputs": [
    {
     "data": {
      "text/html": [
       "<div>\n",
       "<style scoped>\n",
       "    .dataframe tbody tr th:only-of-type {\n",
       "        vertical-align: middle;\n",
       "    }\n",
       "\n",
       "    .dataframe tbody tr th {\n",
       "        vertical-align: top;\n",
       "    }\n",
       "\n",
       "    .dataframe thead th {\n",
       "        text-align: right;\n",
       "    }\n",
       "</style>\n",
       "<table border=\"1\" class=\"dataframe\">\n",
       "  <thead>\n",
       "    <tr style=\"text-align: right;\">\n",
       "      <th></th>\n",
       "      <th>frame_number</th>\n",
       "      <th>object_id</th>\n",
       "      <th>bb_left</th>\n",
       "      <th>bb_top</th>\n",
       "      <th>bb_width</th>\n",
       "      <th>bb_height</th>\n",
       "      <th>cls</th>\n",
       "      <th>conf</th>\n",
       "      <th>image_name</th>\n",
       "      <th>vid_path</th>\n",
       "    </tr>\n",
       "  </thead>\n",
       "  <tbody>\n",
       "    <tr>\n",
       "      <th>0</th>\n",
       "      <td>1.0</td>\n",
       "      <td>1.0</td>\n",
       "      <td>627.215820</td>\n",
       "      <td>577.873901</td>\n",
       "      <td>89.832092</td>\n",
       "      <td>262.703369</td>\n",
       "      <td>0.0</td>\n",
       "      <td>0.854258</td>\n",
       "      <td>000001.jpg</td>\n",
       "      <td>data/MOT17/TEST/MOT17-02-SDP/img1/</td>\n",
       "    </tr>\n",
       "    <tr>\n",
       "      <th>1</th>\n",
       "      <td>1.0</td>\n",
       "      <td>2.0</td>\n",
       "      <td>1417.526367</td>\n",
       "      <td>597.761108</td>\n",
       "      <td>163.823730</td>\n",
       "      <td>366.248352</td>\n",
       "      <td>0.0</td>\n",
       "      <td>0.833204</td>\n",
       "      <td>000001.jpg</td>\n",
       "      <td>data/MOT17/TEST/MOT17-02-SDP/img1/</td>\n",
       "    </tr>\n",
       "    <tr>\n",
       "      <th>2</th>\n",
       "      <td>1.0</td>\n",
       "      <td>3.0</td>\n",
       "      <td>1521.740845</td>\n",
       "      <td>603.622253</td>\n",
       "      <td>154.183350</td>\n",
       "      <td>334.185181</td>\n",
       "      <td>0.0</td>\n",
       "      <td>0.780781</td>\n",
       "      <td>000001.jpg</td>\n",
       "      <td>data/MOT17/TEST/MOT17-02-SDP/img1/</td>\n",
       "    </tr>\n",
       "    <tr>\n",
       "      <th>3</th>\n",
       "      <td>1.0</td>\n",
       "      <td>4.0</td>\n",
       "      <td>503.618896</td>\n",
       "      <td>579.919189</td>\n",
       "      <td>96.123779</td>\n",
       "      <td>282.286865</td>\n",
       "      <td>0.0</td>\n",
       "      <td>0.645980</td>\n",
       "      <td>000001.jpg</td>\n",
       "      <td>data/MOT17/TEST/MOT17-02-SDP/img1/</td>\n",
       "    </tr>\n",
       "    <tr>\n",
       "      <th>4</th>\n",
       "      <td>1.0</td>\n",
       "      <td>5.0</td>\n",
       "      <td>747.827026</td>\n",
       "      <td>511.795532</td>\n",
       "      <td>31.721252</td>\n",
       "      <td>109.744263</td>\n",
       "      <td>0.0</td>\n",
       "      <td>0.480551</td>\n",
       "      <td>000001.jpg</td>\n",
       "      <td>data/MOT17/TEST/MOT17-02-SDP/img1/</td>\n",
       "    </tr>\n",
       "    <tr>\n",
       "      <th>...</th>\n",
       "      <td>...</td>\n",
       "      <td>...</td>\n",
       "      <td>...</td>\n",
       "      <td>...</td>\n",
       "      <td>...</td>\n",
       "      <td>...</td>\n",
       "      <td>...</td>\n",
       "      <td>...</td>\n",
       "      <td>...</td>\n",
       "      <td>...</td>\n",
       "    </tr>\n",
       "    <tr>\n",
       "      <th>10783</th>\n",
       "      <td>1125.0</td>\n",
       "      <td>5.0</td>\n",
       "      <td>1315.846802</td>\n",
       "      <td>553.570679</td>\n",
       "      <td>57.596191</td>\n",
       "      <td>212.237091</td>\n",
       "      <td>0.0</td>\n",
       "      <td>0.630653</td>\n",
       "      <td>001125.jpg</td>\n",
       "      <td>data/MOT17/TEST/MOT17-02-SDP/img1/</td>\n",
       "    </tr>\n",
       "    <tr>\n",
       "      <th>10784</th>\n",
       "      <td>1125.0</td>\n",
       "      <td>6.0</td>\n",
       "      <td>1372.951050</td>\n",
       "      <td>549.365479</td>\n",
       "      <td>75.153809</td>\n",
       "      <td>221.289062</td>\n",
       "      <td>0.0</td>\n",
       "      <td>0.599729</td>\n",
       "      <td>001125.jpg</td>\n",
       "      <td>data/MOT17/TEST/MOT17-02-SDP/img1/</td>\n",
       "    </tr>\n",
       "    <tr>\n",
       "      <th>10785</th>\n",
       "      <td>1125.0</td>\n",
       "      <td>7.0</td>\n",
       "      <td>160.488617</td>\n",
       "      <td>617.710022</td>\n",
       "      <td>85.917282</td>\n",
       "      <td>258.122681</td>\n",
       "      <td>0.0</td>\n",
       "      <td>0.589529</td>\n",
       "      <td>001125.jpg</td>\n",
       "      <td>data/MOT17/TEST/MOT17-02-SDP/img1/</td>\n",
       "    </tr>\n",
       "    <tr>\n",
       "      <th>10786</th>\n",
       "      <td>1125.0</td>\n",
       "      <td>8.0</td>\n",
       "      <td>1700.870361</td>\n",
       "      <td>539.333252</td>\n",
       "      <td>65.721191</td>\n",
       "      <td>196.503387</td>\n",
       "      <td>0.0</td>\n",
       "      <td>0.552905</td>\n",
       "      <td>001125.jpg</td>\n",
       "      <td>data/MOT17/TEST/MOT17-02-SDP/img1/</td>\n",
       "    </tr>\n",
       "    <tr>\n",
       "      <th>10787</th>\n",
       "      <td>1125.0</td>\n",
       "      <td>9.0</td>\n",
       "      <td>1326.924072</td>\n",
       "      <td>555.023804</td>\n",
       "      <td>72.403198</td>\n",
       "      <td>214.977173</td>\n",
       "      <td>0.0</td>\n",
       "      <td>0.534471</td>\n",
       "      <td>001125.jpg</td>\n",
       "      <td>data/MOT17/TEST/MOT17-02-SDP/img1/</td>\n",
       "    </tr>\n",
       "  </tbody>\n",
       "</table>\n",
       "<p>10788 rows × 10 columns</p>\n",
       "</div>"
      ],
      "text/plain": [
       "       frame_number  object_id      bb_left      bb_top    bb_width  \\\n",
       "0               1.0        1.0   627.215820  577.873901   89.832092   \n",
       "1               1.0        2.0  1417.526367  597.761108  163.823730   \n",
       "2               1.0        3.0  1521.740845  603.622253  154.183350   \n",
       "3               1.0        4.0   503.618896  579.919189   96.123779   \n",
       "4               1.0        5.0   747.827026  511.795532   31.721252   \n",
       "...             ...        ...          ...         ...         ...   \n",
       "10783        1125.0        5.0  1315.846802  553.570679   57.596191   \n",
       "10784        1125.0        6.0  1372.951050  549.365479   75.153809   \n",
       "10785        1125.0        7.0   160.488617  617.710022   85.917282   \n",
       "10786        1125.0        8.0  1700.870361  539.333252   65.721191   \n",
       "10787        1125.0        9.0  1326.924072  555.023804   72.403198   \n",
       "\n",
       "        bb_height  cls      conf  image_name  \\\n",
       "0      262.703369  0.0  0.854258  000001.jpg   \n",
       "1      366.248352  0.0  0.833204  000001.jpg   \n",
       "2      334.185181  0.0  0.780781  000001.jpg   \n",
       "3      282.286865  0.0  0.645980  000001.jpg   \n",
       "4      109.744263  0.0  0.480551  000001.jpg   \n",
       "...           ...  ...       ...         ...   \n",
       "10783  212.237091  0.0  0.630653  001125.jpg   \n",
       "10784  221.289062  0.0  0.599729  001125.jpg   \n",
       "10785  258.122681  0.0  0.589529  001125.jpg   \n",
       "10786  196.503387  0.0  0.552905  001125.jpg   \n",
       "10787  214.977173  0.0  0.534471  001125.jpg   \n",
       "\n",
       "                                 vid_path  \n",
       "0      data/MOT17/TEST/MOT17-02-SDP/img1/  \n",
       "1      data/MOT17/TEST/MOT17-02-SDP/img1/  \n",
       "2      data/MOT17/TEST/MOT17-02-SDP/img1/  \n",
       "3      data/MOT17/TEST/MOT17-02-SDP/img1/  \n",
       "4      data/MOT17/TEST/MOT17-02-SDP/img1/  \n",
       "...                                   ...  \n",
       "10783  data/MOT17/TEST/MOT17-02-SDP/img1/  \n",
       "10784  data/MOT17/TEST/MOT17-02-SDP/img1/  \n",
       "10785  data/MOT17/TEST/MOT17-02-SDP/img1/  \n",
       "10786  data/MOT17/TEST/MOT17-02-SDP/img1/  \n",
       "10787  data/MOT17/TEST/MOT17-02-SDP/img1/  \n",
       "\n",
       "[10788 rows x 10 columns]"
      ]
     },
     "execution_count": 3,
     "metadata": {},
     "output_type": "execute_result"
    }
   ],
   "source": [
    "gt_df = pd.read_csv(os.path.join(DATA_PATH, 'data/MOT17/TEST/labels.csv'))\n",
    "gt_df['vid_path'] = gt_df['vid_path'].apply(lambda x: os.path.join(DATA_PATH, x))\n",
    "result_df = pd.read_csv('data/MOT17/sample_submission.csv')\n",
    "result_df"
   ]
  },
  {
   "cell_type": "code",
   "execution_count": 9,
   "metadata": {},
   "outputs": [],
   "source": [
    "import motmetrics as mm\n",
    "\n",
    "def compute_one_frame(acc, GT_labels, GT_bboxes, predict_labels, predict_bboxes, max_iou=0.5):\n",
    "    dists = mm.distances.iou_matrix(GT_bboxes, predict_bboxes)\n",
    "    acc.update(GT_labels, predict_labels, dists)\n",
    "\n",
    "def compute_dataset(gt_dataset, pred_dataset):\n",
    "    acc_list = []\n",
    "    for vid_path in sorted(gt_dataset['vid_path'].unique()):\n",
    "        model_name_acc = mm.MOTAccumulator(auto_id=True)\n",
    "        gt_for_vid = gt_dataset[gt_dataset['vid_path']==vid_path]\n",
    "        image_names = gt_for_vid['image_name'].unique()\n",
    "        for im_name in image_names:\n",
    "            gt_idxes = gt_for_vid[gt_for_vid['image_name']==im_name]['object_id'].tolist()\n",
    "            gt_bboxes = gt_for_vid[gt_for_vid['image_name']==im_name][['bb_left', 'bb_top', 'bb_width', 'bb_height']].to_numpy()    \n",
    "            pred_idxes = pred_dataset[pred_dataset['image_name']==im_name]['object_id'].tolist()\n",
    "            pred_bboxes = pred_dataset[pred_dataset['image_name']==im_name][['bb_left', 'bb_top', 'bb_width', 'bb_height']].to_numpy()    \n",
    "            compute_one_frame(model_name_acc, gt_idxes, gt_bboxes, pred_idxes, pred_bboxes)\n",
    "        acc_list.append(model_name_acc)\n",
    "    \n",
    "    mh = mm.metrics.create()\n",
    "    summary = mh.compute_many(\n",
    "        acc_list,\n",
    "        metrics=['num_frames', 'num_matches', 'num_switches',\n",
    "                    'num_false_positives', 'num_misses', 'mota',\n",
    "                    'idf1', 'precision', 'recall'],\n",
    "        names=sorted(gt_dataset['vid_path'].unique()))\n",
    "    return summary\n"
   ]
  },
  {
   "cell_type": "code",
   "execution_count": 10,
   "metadata": {},
   "outputs": [],
   "source": [
    "summary = compute_dataset(gt_df, result_df)"
   ]
  },
  {
   "cell_type": "code",
   "execution_count": 11,
   "metadata": {},
   "outputs": [
    {
     "data": {
      "text/html": [
       "<div>\n",
       "<style scoped>\n",
       "    .dataframe tbody tr th:only-of-type {\n",
       "        vertical-align: middle;\n",
       "    }\n",
       "\n",
       "    .dataframe tbody tr th {\n",
       "        vertical-align: top;\n",
       "    }\n",
       "\n",
       "    .dataframe thead th {\n",
       "        text-align: right;\n",
       "    }\n",
       "</style>\n",
       "<table border=\"1\" class=\"dataframe\">\n",
       "  <thead>\n",
       "    <tr style=\"text-align: right;\">\n",
       "      <th></th>\n",
       "      <th>/home/kashindanil/temp_project/data/MOT17/TEST/MOT17-02-SDP/img1/</th>\n",
       "      <th>/home/kashindanil/temp_project/data/MOT17/TEST/MOT17-09-SDP/img1/</th>\n",
       "    </tr>\n",
       "  </thead>\n",
       "  <tbody>\n",
       "    <tr>\n",
       "      <th>num_frames</th>\n",
       "      <td>600.000000</td>\n",
       "      <td>525.000000</td>\n",
       "    </tr>\n",
       "    <tr>\n",
       "      <th>num_matches</th>\n",
       "      <td>5709.000000</td>\n",
       "      <td>4020.000000</td>\n",
       "    </tr>\n",
       "    <tr>\n",
       "      <th>num_switches</th>\n",
       "      <td>29.000000</td>\n",
       "      <td>442.000000</td>\n",
       "    </tr>\n",
       "    <tr>\n",
       "      <th>num_false_positives</th>\n",
       "      <td>0.000000</td>\n",
       "      <td>451.000000</td>\n",
       "    </tr>\n",
       "    <tr>\n",
       "      <th>num_misses</th>\n",
       "      <td>12843.000000</td>\n",
       "      <td>863.000000</td>\n",
       "    </tr>\n",
       "    <tr>\n",
       "      <th>mota</th>\n",
       "      <td>0.307249</td>\n",
       "      <td>0.670235</td>\n",
       "    </tr>\n",
       "    <tr>\n",
       "      <th>idf1</th>\n",
       "      <td>0.462766</td>\n",
       "      <td>0.627662</td>\n",
       "    </tr>\n",
       "    <tr>\n",
       "      <th>precision</th>\n",
       "      <td>1.000000</td>\n",
       "      <td>0.908203</td>\n",
       "    </tr>\n",
       "    <tr>\n",
       "      <th>recall</th>\n",
       "      <td>0.308810</td>\n",
       "      <td>0.837934</td>\n",
       "    </tr>\n",
       "  </tbody>\n",
       "</table>\n",
       "</div>"
      ],
      "text/plain": [
       "                     /home/kashindanil/temp_project/data/MOT17/TEST/MOT17-02-SDP/img1/  \\\n",
       "num_frames                                                  600.000000                   \n",
       "num_matches                                                5709.000000                   \n",
       "num_switches                                                 29.000000                   \n",
       "num_false_positives                                           0.000000                   \n",
       "num_misses                                                12843.000000                   \n",
       "mota                                                          0.307249                   \n",
       "idf1                                                          0.462766                   \n",
       "precision                                                     1.000000                   \n",
       "recall                                                        0.308810                   \n",
       "\n",
       "                     /home/kashindanil/temp_project/data/MOT17/TEST/MOT17-09-SDP/img1/  \n",
       "num_frames                                                  525.000000                  \n",
       "num_matches                                                4020.000000                  \n",
       "num_switches                                                442.000000                  \n",
       "num_false_positives                                         451.000000                  \n",
       "num_misses                                                  863.000000                  \n",
       "mota                                                          0.670235                  \n",
       "idf1                                                          0.627662                  \n",
       "precision                                                     0.908203                  \n",
       "recall                                                        0.837934                  "
      ]
     },
     "execution_count": 11,
     "metadata": {},
     "output_type": "execute_result"
    }
   ],
   "source": [
    "summary.T"
   ]
  },
  {
   "cell_type": "code",
   "execution_count": 12,
   "metadata": {},
   "outputs": [
    {
     "data": {
      "text/plain": [
       "0.4887420412542167"
      ]
     },
     "execution_count": 12,
     "metadata": {},
     "output_type": "execute_result"
    }
   ],
   "source": [
    "summary['mota'].mean()"
   ]
  },
  {
   "cell_type": "markdown",
   "metadata": {},
   "source": [
    "### Vizualize preds"
   ]
  },
  {
   "cell_type": "code",
   "execution_count": 14,
   "metadata": {},
   "outputs": [],
   "source": [
    "one_vid = gt_df[gt_df['vid_path']==gt_df['vid_path'][0]]"
   ]
  },
  {
   "cell_type": "code",
   "execution_count": 15,
   "metadata": {},
   "outputs": [],
   "source": [
    "\n",
    "formated_one_vid = pd.merge(one_vid.groupby('frame_number')[['object_id', 'bb_left', 'bb_top', 'bb_width', 'bb_height', ]].apply(\n",
    "                                        lambda x: x.values\n",
    "                                    ).reset_index(name='idx_and_bboxes'), \n",
    "                                    one_vid[['image_name', 'vid_path', 'frame_number']].drop_duplicates(), on = 'frame_number', how='left')\n",
    "formated_one_vid['object_idxes'] = formated_one_vid['idx_and_bboxes'].apply(lambda x: [i[0] for i in x])\n",
    "formated_one_vid['bboxes'] = formated_one_vid['idx_and_bboxes'].apply(lambda x: [i[1:] for i in x])\n",
    "formated_one_vid['full_path'] = formated_one_vid.apply(lambda row: os.path.join(row['vid_path'], row['image_name']), axis=1)\n"
   ]
  },
  {
   "cell_type": "code",
   "execution_count": 16,
   "metadata": {},
   "outputs": [
    {
     "name": "stdout",
     "output_type": "stream",
     "text": [
      "Video saved as /home/kashindanil/temp_project/mp4data/test_video1.mp4\n"
     ]
    },
    {
     "name": "stderr",
     "output_type": "stream",
     "text": [
      "ffmpeg version 6.1.1-3ubuntu5 Copyright (c) 2000-2023 the FFmpeg developers\n",
      "  built with gcc 13 (Ubuntu 13.2.0-23ubuntu3)\n",
      "  configuration: --prefix=/usr --extra-version=3ubuntu5 --toolchain=hardened --libdir=/usr/lib/x86_64-linux-gnu --incdir=/usr/include/x86_64-linux-gnu --arch=amd64 --enable-gpl --disable-stripping --disable-omx --enable-gnutls --enable-libaom --enable-libass --enable-libbs2b --enable-libcaca --enable-libcdio --enable-libcodec2 --enable-libdav1d --enable-libflite --enable-libfontconfig --enable-libfreetype --enable-libfribidi --enable-libglslang --enable-libgme --enable-libgsm --enable-libharfbuzz --enable-libmp3lame --enable-libmysofa --enable-libopenjpeg --enable-libopenmpt --enable-libopus --enable-librubberband --enable-libshine --enable-libsnappy --enable-libsoxr --enable-libspeex --enable-libtheora --enable-libtwolame --enable-libvidstab --enable-libvorbis --enable-libvpx --enable-libwebp --enable-libx265 --enable-libxml2 --enable-libxvid --enable-libzimg --enable-openal --enable-opencl --enable-opengl --disable-sndio --enable-libvpl --disable-libmfx --enable-libdc1394 --enable-libdrm --enable-libiec61883 --enable-chromaprint --enable-frei0r --enable-ladspa --enable-libbluray --enable-libjack --enable-libpulse --enable-librabbitmq --enable-librist --enable-libsrt --enable-libssh --enable-libsvtav1 --enable-libx264 --enable-libzmq --enable-libzvbi --enable-lv2 --enable-sdl2 --enable-libplacebo --enable-librav1e --enable-pocketsphinx --enable-librsvg --enable-libjxl --enable-shared\n",
      "  libavutil      58. 29.100 / 58. 29.100\n",
      "  libavcodec     60. 31.102 / 60. 31.102\n",
      "  libavformat    60. 16.100 / 60. 16.100\n",
      "  libavdevice    60.  3.100 / 60.  3.100\n",
      "  libavfilter     9. 12.100 /  9. 12.100\n",
      "  libswscale      7.  5.100 /  7.  5.100\n",
      "  libswresample   4. 12.100 /  4. 12.100\n",
      "  libpostproc    57.  3.100 / 57.  3.100\n",
      "Input #0, mov,mp4,m4a,3gp,3g2,mj2, from '/home/kashindanil/temp_project/mp4data/test_video1.mp4':\n",
      "  Metadata:\n",
      "    major_brand     : isom\n",
      "    minor_version   : 512\n",
      "    compatible_brands: isomiso2mp41\n",
      "    encoder         : Lavf59.27.100\n",
      "  Duration: 00:00:25.00, start: 0.000000, bitrate: 18838 kb/s\n",
      "  Stream #0:0[0x1](und): Video: mpeg4 (Simple Profile) (mp4v / 0x7634706D), yuv420p, 1920x1080 [SAR 1:1 DAR 16:9], 18836 kb/s, 24 fps, 24 tbr, 12288 tbn (default)\n",
      "    Metadata:\n",
      "      handler_name    : VideoHandler\n",
      "      vendor_id       : [0][0][0][0]\n",
      "Stream mapping:\n",
      "  Stream #0:0 -> #0:0 (mpeg4 (native) -> h264 (libx264))\n",
      "Press [q] to stop, [?] for help\n",
      "[libx264 @ 0x562b5614fa00] using SAR=1/1\n",
      "[libx264 @ 0x562b5614fa00] using cpu capabilities: MMX2 SSE2Fast SSSE3 SSE4.2 AVX FMA3 BMI2 AVX2 AVX512\n",
      "[libx264 @ 0x562b5614fa00] profile High, level 4.0, 4:2:0, 8-bit\n",
      "[libx264 @ 0x562b5614fa00] 264 - core 164 r3108 31e19f9 - H.264/MPEG-4 AVC codec - Copyleft 2003-2023 - http://www.videolan.org/x264.html - options: cabac=1 ref=3 deblock=1:0:0 analyse=0x3:0x113 me=hex subme=7 psy=1 psy_rd=1.00:0.00 mixed_ref=1 me_range=16 chroma_me=1 trellis=1 8x8dct=1 cqm=0 deadzone=21,11 fast_pskip=1 chroma_qp_offset=-2 threads=34 lookahead_threads=5 sliced_threads=0 nr=0 decimate=1 interlaced=0 bluray_compat=0 constrained_intra=0 bframes=3 b_pyramid=2 b_adapt=1 b_bias=0 direct=1 weightb=1 open_gop=0 weightp=2 keyint=250 keyint_min=24 scenecut=40 intra_refresh=0 rc_lookahead=40 rc=crf mbtree=1 crf=23.0 qcomp=0.60 qpmin=0 qpmax=69 qpstep=4 ip_ratio=1.40 aq=1:1.00\n",
      "Output #0, mp4, to '/home/kashindanil/temp_project/mp4data/decoded_test_video1.mp4':\n",
      "  Metadata:\n",
      "    major_brand     : isom\n",
      "    minor_version   : 512\n",
      "    compatible_brands: isomiso2mp41\n",
      "    encoder         : Lavf60.16.100\n",
      "  Stream #0:0(und): Video: h264 (avc1 / 0x31637661), yuv420p(progressive), 1920x1080 [SAR 1:1 DAR 16:9], q=2-31, 24 fps, 12288 tbn (default)\n",
      "    Metadata:\n",
      "      handler_name    : VideoHandler\n",
      "      vendor_id       : [0][0][0][0]\n",
      "      encoder         : Lavc60.31.102 libx264\n",
      "    Side data:\n",
      "      cpb: bitrate max/min/avg: 0/0/0 buffer size: 0 vbv_delay: N/A\n",
      "[out#0/mp4 @ 0x562b56149ec0] video:24606kB audio:0kB subtitle:0kB other streams:0kB global headers:0kB muxing overhead: 0.025297%\n",
      "frame=  600 fps=150 q=-1.0 Lsize=   24612kB time=00:00:24.87 bitrate=8105.5kbits/s speed= 6.2x    \n",
      "[libx264 @ 0x562b5614fa00] frame I:3     Avg QP:21.10  size:158424\n",
      "[libx264 @ 0x562b5614fa00] frame P:396   Avg QP:22.67  size: 53477\n",
      "[libx264 @ 0x562b5614fa00] frame B:201   Avg QP:26.25  size: 17630\n",
      "[libx264 @ 0x562b5614fa00] consecutive B-frames: 50.3% 10.0% 15.0% 24.7%\n",
      "[libx264 @ 0x562b5614fa00] mb I  I16..4: 12.5% 78.8%  8.6%\n",
      "[libx264 @ 0x562b5614fa00] mb P  I16..4:  3.0% 12.9%  1.2%  P16..4: 28.6% 13.2% 11.2%  0.0%  0.0%    skip:29.8%\n",
      "[libx264 @ 0x562b5614fa00] mb B  I16..4:  1.2%  4.2%  0.3%  B16..8: 37.8%  6.9%  1.6%  direct: 2.1%  skip:45.8%  L0:51.0% L1:38.5% BI:10.5%\n",
      "[libx264 @ 0x562b5614fa00] 8x8 transform intra:75.4% inter:86.2%\n",
      "[libx264 @ 0x562b5614fa00] coded y,uvDC,uvAC intra: 58.3% 64.5% 6.0% inter: 23.7% 17.6% 2.7%\n",
      "[libx264 @ 0x562b5614fa00] i16 v,h,dc,p: 40% 27% 31%  2%\n",
      "[libx264 @ 0x562b5614fa00] i8 v,h,dc,ddl,ddr,vr,hd,vl,hu: 18% 28% 45%  2%  1%  1%  1%  1%  3%\n",
      "[libx264 @ 0x562b5614fa00] i4 v,h,dc,ddl,ddr,vr,hd,vl,hu: 55% 21% 10%  2%  2%  3%  2%  2%  2%\n",
      "[libx264 @ 0x562b5614fa00] i8c dc,h,v,p: 37% 27% 33%  2%\n",
      "[libx264 @ 0x562b5614fa00] Weighted P-Frames: Y:0.0% UV:0.0%\n",
      "[libx264 @ 0x562b5614fa00] ref P L0: 65.3% 12.6% 14.7%  7.4%\n",
      "[libx264 @ 0x562b5614fa00] ref B L0: 77.3% 18.3%  4.4%\n",
      "[libx264 @ 0x562b5614fa00] ref B L1: 95.1%  4.9%\n",
      "[libx264 @ 0x562b5614fa00] kb/s:8062.67\n"
     ]
    }
   ],
   "source": [
    "images_to_mp4(formated_one_vid['full_path'].tolist(), \n",
    "              formated_one_vid['bboxes'].tolist(), \n",
    "              formated_one_vid['object_idxes'].tolist(),\n",
    "              output_video_path = os.path.join(DIR_TO_VIZ, 'test_video1.mp4'))\n",
    "decode_video(os.path.join(DIR_TO_VIZ, 'test_video1.mp4'), os.path.join(DIR_TO_VIZ, 'decoded_test_video1.mp4'))"
   ]
  },
  {
   "cell_type": "code",
   "execution_count": 17,
   "metadata": {},
   "outputs": [
    {
     "data": {
      "text/html": [
       "<video src=\"/home/kashindanil/temp_project/mp4data/decoded_test_video1.mp4\" controls  >\n",
       "      Your browser does not support the <code>video</code> element.\n",
       "    </video>"
      ],
      "text/plain": [
       "<IPython.core.display.Video object>"
      ]
     },
     "execution_count": 17,
     "metadata": {},
     "output_type": "execute_result"
    }
   ],
   "source": [
    "Video(os.path.join(DIR_TO_VIZ, 'decoded_test_video1.mp4')) "
   ]
  },
  {
   "cell_type": "code",
   "execution_count": null,
   "metadata": {},
   "outputs": [],
   "source": []
  }
 ],
 "metadata": {
  "kernelspec": {
   "display_name": "Python 3",
   "language": "python",
   "name": "python3"
  },
  "language_info": {
   "codemirror_mode": {
    "name": "ipython",
    "version": 3
   },
   "file_extension": ".py",
   "mimetype": "text/x-python",
   "name": "python",
   "nbconvert_exporter": "python",
   "pygments_lexer": "ipython3",
   "version": "3.12.3"
  }
 },
 "nbformat": 4,
 "nbformat_minor": 2
}
